<mxfile host="65bd71144e">
    <diagram id="0RaGL9G3iHv2ALPHQWGb" name="第 1 页">
        <mxGraphModel dx="887" dy="672" grid="1" gridSize="10" guides="1" tooltips="1" connect="1" arrows="1" fold="1" page="1" pageScale="1" pageWidth="827" pageHeight="1169" background="#737373" math="0" shadow="0">
            <root>
                <mxCell id="0"/>
                <mxCell id="1" parent="0"/>
                <mxCell id="2" value="Left_walk" style="ellipse;whiteSpace=wrap;html=1;aspect=fixed;fontColor=#000000;" parent="1" vertex="1">
                    <mxGeometry x="250" y="340" width="80" height="80" as="geometry"/>
                </mxCell>
                <mxCell id="7" style="edgeStyle=none;html=1;exitX=0;exitY=1;exitDx=0;exitDy=0;entryX=0.953;entryY=0.836;entryDx=0;entryDy=0;entryPerimeter=0;fontColor=#000000;" parent="1" source="3" target="2" edge="1">
                    <mxGeometry relative="1" as="geometry">
                        <Array as="points">
                            <mxPoint x="500" y="460"/>
                            <mxPoint x="410" y="470"/>
                            <mxPoint x="360" y="450"/>
                        </Array>
                    </mxGeometry>
                </mxCell>
                <mxCell id="8" value="Text" style="edgeLabel;html=1;align=center;verticalAlign=middle;resizable=0;points=[];fontColor=#000000;" parent="7" vertex="1" connectable="0">
                    <mxGeometry x="0.1113" y="3" relative="1" as="geometry">
                        <mxPoint as="offset"/>
                    </mxGeometry>
                </mxCell>
                <mxCell id="9" value="Text" style="edgeLabel;html=1;align=center;verticalAlign=middle;resizable=0;points=[];fontColor=#000000;" parent="7" vertex="1" connectable="0">
                    <mxGeometry x="0.1004" y="2" relative="1" as="geometry">
                        <mxPoint as="offset"/>
                    </mxGeometry>
                </mxCell>
                <mxCell id="10" value="Bump_Left = 0&lt;br&gt;Bump_right = 1" style="edgeLabel;html=1;align=center;verticalAlign=middle;resizable=0;points=[];fontColor=#000000;" parent="7" vertex="1" connectable="0">
                    <mxGeometry x="0.1138" y="2" relative="1" as="geometry">
                        <mxPoint as="offset"/>
                    </mxGeometry>
                </mxCell>
                <mxCell id="3" value="Right_walk" style="ellipse;whiteSpace=wrap;html=1;aspect=fixed;fontColor=#000000;" parent="1" vertex="1">
                    <mxGeometry x="570" y="340" width="80" height="80" as="geometry"/>
                </mxCell>
                <mxCell id="4" value="" style="curved=1;endArrow=classic;html=1;exitX=0.5;exitY=0;exitDx=0;exitDy=0;entryX=0.212;entryY=0.055;entryDx=0;entryDy=0;entryPerimeter=0;fontColor=#000000;" parent="1" source="2" target="3" edge="1">
                    <mxGeometry width="50" height="50" relative="1" as="geometry">
                        <mxPoint x="280" y="350" as="sourcePoint"/>
                        <mxPoint x="330" y="300" as="targetPoint"/>
                        <Array as="points">
                            <mxPoint x="320" y="320"/>
                            <mxPoint x="400" y="240"/>
                            <mxPoint x="570" y="280"/>
                        </Array>
                    </mxGeometry>
                </mxCell>
                <mxCell id="6" value="Bump_Left = 1&lt;br&gt;Bump_right = 0" style="edgeLabel;html=1;align=center;verticalAlign=middle;resizable=0;points=[];fontColor=#000000;" parent="4" vertex="1" connectable="0">
                    <mxGeometry x="0.1795" y="2" relative="1" as="geometry">
                        <mxPoint as="offset"/>
                    </mxGeometry>
                </mxCell>
                <mxCell id="14" value="" style="curved=1;endArrow=classic;html=1;entryX=0;entryY=0;entryDx=0;entryDy=0;exitX=-0.012;exitY=0.691;exitDx=0;exitDy=0;exitPerimeter=0;fontColor=#000000;" parent="1" source="3" target="3" edge="1">
                    <mxGeometry width="50" height="50" relative="1" as="geometry">
                        <mxPoint x="510" y="380" as="sourcePoint"/>
                        <mxPoint x="560" y="330" as="targetPoint"/>
                        <Array as="points">
                            <mxPoint x="550" y="395"/>
                            <mxPoint x="520" y="390"/>
                            <mxPoint x="510" y="330"/>
                        </Array>
                    </mxGeometry>
                </mxCell>
                <mxCell id="15" value="Bump_Left = 1&lt;br&gt;Bump_right = 0" style="edgeLabel;html=1;align=center;verticalAlign=middle;resizable=0;points=[];fontColor=#000000;" parent="14" vertex="1" connectable="0">
                    <mxGeometry x="-0.2813" y="-1" relative="1" as="geometry">
                        <mxPoint as="offset"/>
                    </mxGeometry>
                </mxCell>
                <mxCell id="16" value="" style="curved=1;endArrow=classic;html=1;entryX=1.026;entryY=0.702;entryDx=0;entryDy=0;entryPerimeter=0;exitX=1.026;exitY=0.278;exitDx=0;exitDy=0;exitPerimeter=0;fontColor=#000000;" parent="1" source="3" target="3" edge="1">
                    <mxGeometry width="50" height="50" relative="1" as="geometry">
                        <mxPoint x="650" y="390" as="sourcePoint"/>
                        <mxPoint x="659" y="430" as="targetPoint"/>
                        <Array as="points">
                            <mxPoint x="670" y="350"/>
                            <mxPoint x="690" y="350"/>
                            <mxPoint x="700" y="370"/>
                            <mxPoint x="700" y="380"/>
                            <mxPoint x="690" y="430"/>
                            <mxPoint x="680" y="417"/>
                        </Array>
                    </mxGeometry>
                </mxCell>
                <mxCell id="17" value="Bump_Left = 0&lt;br&gt;Bump_right = 0" style="edgeLabel;html=1;align=center;verticalAlign=middle;resizable=0;points=[];fontColor=#000000;" parent="16" vertex="1" connectable="0">
                    <mxGeometry x="-0.0402" y="2" relative="1" as="geometry">
                        <mxPoint as="offset"/>
                    </mxGeometry>
                </mxCell>
                <mxCell id="18" value="" style="curved=1;endArrow=classic;html=1;entryX=1;entryY=0;entryDx=0;entryDy=0;fontColor=#000000;" parent="1" target="3" edge="1">
                    <mxGeometry width="50" height="50" relative="1" as="geometry">
                        <mxPoint x="600" y="340" as="sourcePoint"/>
                        <mxPoint x="650" y="340" as="targetPoint"/>
                        <Array as="points">
                            <mxPoint x="600" y="300"/>
                            <mxPoint x="610" y="290"/>
                            <mxPoint x="620" y="280"/>
                            <mxPoint x="650" y="340"/>
                            <mxPoint x="600" y="290"/>
                            <mxPoint x="660" y="300"/>
                        </Array>
                    </mxGeometry>
                </mxCell>
                <mxCell id="19" value="Bump_Left = 1&lt;br&gt;Bump_right = 1" style="edgeLabel;html=1;align=center;verticalAlign=middle;resizable=0;points=[];fontColor=#000000;" parent="18" vertex="1" connectable="0">
                    <mxGeometry x="0.5709" y="-3" relative="1" as="geometry">
                        <mxPoint as="offset"/>
                    </mxGeometry>
                </mxCell>
                <mxCell id="20" value="" style="curved=1;endArrow=classic;html=1;exitX=1;exitY=0;exitDx=0;exitDy=0;entryX=1.02;entryY=0.691;entryDx=0;entryDy=0;entryPerimeter=0;fontColor=#000000;" parent="1" source="2" target="2" edge="1">
                    <mxGeometry width="50" height="50" relative="1" as="geometry">
                        <mxPoint x="350" y="370" as="sourcePoint"/>
                        <mxPoint x="410" y="390" as="targetPoint"/>
                        <Array as="points">
                            <mxPoint x="340" y="330"/>
                            <mxPoint x="470" y="395"/>
                            <mxPoint x="350" y="320"/>
                            <mxPoint x="430" y="330"/>
                            <mxPoint x="360" y="330"/>
                            <mxPoint x="350" y="330"/>
                            <mxPoint x="420" y="380"/>
                            <mxPoint x="340" y="380"/>
                        </Array>
                    </mxGeometry>
                </mxCell>
                <mxCell id="21" value="Bump_Left = 1&lt;br&gt;Bump_right = 1" style="edgeLabel;html=1;align=center;verticalAlign=middle;resizable=0;points=[];fontColor=#000000;" parent="20" vertex="1" connectable="0">
                    <mxGeometry x="0.7794" y="-1" relative="1" as="geometry">
                        <mxPoint as="offset"/>
                    </mxGeometry>
                </mxCell>
                <mxCell id="22" value="" style="curved=1;endArrow=classic;html=1;exitX=0.25;exitY=1;exitDx=0;exitDy=0;exitPerimeter=0;entryX=0;entryY=0;entryDx=0;entryDy=0;fontColor=#000000;" parent="1" source="2" target="2" edge="1">
                    <mxGeometry width="50" height="50" relative="1" as="geometry">
                        <mxPoint x="200" y="380" as="sourcePoint"/>
                        <mxPoint x="250" y="330" as="targetPoint"/>
                        <Array as="points">
                            <mxPoint x="160" y="360"/>
                            <mxPoint x="250" y="380"/>
                            <mxPoint x="170" y="340"/>
                            <mxPoint x="200" y="330"/>
                        </Array>
                    </mxGeometry>
                </mxCell>
                <mxCell id="23" value="Bump_Left = 0&lt;br&gt;Bump_right = 1" style="edgeLabel;html=1;align=center;verticalAlign=middle;resizable=0;points=[];fontColor=#000000;" parent="22" vertex="1" connectable="0">
                    <mxGeometry x="0.7603" y="-3" relative="1" as="geometry">
                        <mxPoint x="-1" as="offset"/>
                    </mxGeometry>
                </mxCell>
                <mxCell id="24" value="" style="curved=1;endArrow=classic;html=1;entryX=0.234;entryY=0.992;entryDx=0;entryDy=0;entryPerimeter=0;exitX=0.803;exitY=0.981;exitDx=0;exitDy=0;exitPerimeter=0;fontColor=#000000;" parent="1" source="2" target="2" edge="1">
                    <mxGeometry width="50" height="50" relative="1" as="geometry">
                        <mxPoint x="250" y="490" as="sourcePoint"/>
                        <mxPoint x="300" y="440" as="targetPoint"/>
                        <Array as="points">
                            <mxPoint x="300" y="490"/>
                            <mxPoint x="250" y="440"/>
                        </Array>
                    </mxGeometry>
                </mxCell>
                <mxCell id="25" value="Bump_Left = 0&lt;br&gt;Bump_right = 0" style="edgeLabel;html=1;align=center;verticalAlign=middle;resizable=0;points=[];fontColor=#000000;" parent="24" vertex="1" connectable="0">
                    <mxGeometry x="0.0933" y="-9" relative="1" as="geometry">
                        <mxPoint as="offset"/>
                    </mxGeometry>
                </mxCell>
            </root>
        </mxGraphModel>
    </diagram>
</mxfile>